<svg width="71" height="32" viewBox="0 0 71 32" fill="none" xmlns="http://www.w3.org/2000/svg">
<path d="M24.7517 7.34946C24.1503 8.02845 23.4454 8.8109 23.0316 9.25709C22.8182 9.48989 22.5143 9.82615 22.3591 10.0072C22.1974 10.1818 21.9258 10.4922 21.7447 10.6862C21.5701 10.8867 21.3179 11.1647 21.1951 11.3005C20.7748 11.779 19.8048 12.8525 19.6108 13.053C19.5073 13.1629 19.3457 13.3439 19.2551 13.4474C19.0999 13.6349 18.4662 14.3398 17.8195 15.0511C17.645 15.2386 17.5092 15.4068 17.5092 15.4262C17.5092 15.452 18.214 15.4714 19.0805 15.4714H20.6519L20.8718 15.2257C20.9946 15.0899 21.3309 14.7213 21.6154 14.4045C21.8999 14.0811 22.1521 13.8095 22.1715 13.7901C22.2039 13.7578 23.2773 12.5744 23.7817 12.0118C23.9046 11.8696 24.1697 11.5786 24.3702 11.3652C24.5706 11.1518 24.8228 10.8802 24.9198 10.7638C25.0233 10.6539 25.1461 10.5569 25.2043 10.5569C25.2561 10.5569 25.3919 10.6862 25.5083 10.8349C25.6182 10.9837 25.851 11.2488 26.0256 11.4298C26.2002 11.6044 26.6981 12.1606 27.1443 12.6585C27.5905 13.1499 28.1401 13.7643 28.3729 14.0165C28.6057 14.2687 28.9937 14.6955 29.2459 14.9735L29.6986 15.4714H31.2635C32.13 15.465 32.8349 15.4456 32.8349 15.4262C32.8349 15.4068 32.7249 15.271 32.5956 15.1222C32.4598 14.9735 32.1171 14.592 31.8325 14.2751C31.548 13.9583 31.1277 13.4927 30.8949 13.2405C30.6621 12.9948 30.3711 12.6714 30.2482 12.5356C30.1254 12.3934 29.7438 11.973 29.4011 11.598C29.0649 11.2229 28.6963 10.8091 28.5863 10.6862C28.4829 10.5633 28.1207 10.1559 27.7845 9.78735C27.4482 9.41876 27.1055 9.0243 27.015 8.91437C26.9309 8.80443 26.7822 8.64277 26.6916 8.55224C26.6011 8.46171 26.239 8.06725 25.8898 7.67926C25.5341 7.2848 25.2108 6.96147 25.1785 6.955C25.1397 6.94854 24.9457 7.1296 24.7517 7.34946Z" fill="#E3622E"/>
<path d="M6.60655 7.44641C6.52895 7.47875 6.40608 7.58868 6.32849 7.68568C6.19269 7.86027 6.19269 7.87967 6.19269 11.5527C6.19269 14.7924 6.20562 15.2645 6.29615 15.3938C6.38022 15.5231 6.45135 15.5361 6.89754 15.5361C7.30493 15.5361 7.42133 15.5102 7.5054 15.4197C7.60239 15.3097 7.61533 15.0058 7.61533 12.3481C7.61533 10.7249 7.63473 9.38638 7.66706 9.37344C7.70586 9.34758 9.48416 10.8284 11.0749 12.2058C11.2819 12.3804 11.5534 12.6132 11.6892 12.7231C11.8186 12.8266 12.4911 13.3956 13.1765 13.9841C15.123 15.6525 15.0001 15.5684 15.4786 15.5684C15.8408 15.5684 15.9119 15.5425 16.0671 15.3873L16.2482 15.2127L16.2676 11.5074C16.2805 8.59746 16.2611 7.77621 16.1964 7.64688C16.1253 7.49815 16.0736 7.48521 15.608 7.46581C14.7932 7.43348 14.8578 7.14895 14.8578 10.6344C14.8578 12.9624 14.8384 13.5961 14.7803 13.5961C14.735 13.5961 14.4052 13.3439 14.0495 13.04C13.6939 12.736 13.2412 12.3481 13.0472 12.1864C12.8532 12.0183 12.4588 11.6755 12.1678 11.4298C11.8832 11.1776 11.4047 10.7702 11.1073 10.5245C10.8163 10.2723 10.5382 10.0395 10.4994 10.0072C10.4606 9.96836 10.2537 9.79377 10.0403 9.61917C9.82688 9.43811 9.63935 9.28291 9.61995 9.26351C9.60055 9.24411 9.40009 9.06952 9.1673 8.87552C8.9345 8.68152 8.73404 8.50693 8.71464 8.48753C8.69524 8.46813 8.50771 8.31293 8.29431 8.13187C8.08092 7.95727 7.89339 7.78914 7.87399 7.76974C7.85459 7.74388 7.72526 7.66628 7.58946 7.58868C7.30493 7.42701 6.81348 7.35588 6.60655 7.44641Z" fill="white"/>
<path d="M34.1281 7.58217C33.9988 7.7115 33.9988 7.79556 33.9988 11.5138C33.9988 14.6954 34.0117 15.3355 34.0893 15.4455C34.1669 15.5489 34.2639 15.5683 34.6648 15.5683C35.3956 15.5683 35.3568 15.6589 35.3568 13.8482C35.3568 13.0011 35.3826 12.2963 35.415 12.2769C35.4667 12.2381 35.693 12.348 36.8441 12.9623C37.148 13.124 37.717 13.4215 38.105 13.6284C38.4995 13.8353 39.0233 14.1069 39.269 14.2427C39.5212 14.3785 40.0709 14.6695 40.4977 14.8894C40.9244 15.1157 41.3771 15.3549 41.5 15.4325C41.681 15.536 41.8427 15.5619 42.263 15.5683C42.7609 15.5683 42.8127 15.5554 42.9355 15.4067C43.0907 15.2127 43.0519 14.9088 42.845 14.7536C42.7739 14.6954 42.4635 14.5208 42.1531 14.3591C41.8492 14.1974 41.4094 13.9646 41.1766 13.8418C39.8898 13.1563 38.6159 12.4838 37.426 11.863C37.0898 11.682 36.8117 11.5074 36.8117 11.4621C36.8117 11.4233 37.0575 11.2552 37.3614 11.0935C37.6653 10.9383 38.2732 10.615 38.7194 10.3822C39.1655 10.1494 39.7928 9.81959 40.1097 9.65146C40.433 9.48333 41.0408 9.16647 41.4676 8.94014C42.4376 8.43575 42.6769 8.29349 42.7739 8.16416C42.9032 8.00896 42.8709 7.74383 42.7092 7.5951C42.5799 7.4787 42.4829 7.45284 42.0884 7.45284C41.584 7.45284 41.7134 7.40111 39.851 8.39049C39.6053 8.51982 39.0621 8.80434 38.6547 9.02421C38.2473 9.2376 37.7688 9.4898 37.5877 9.5868C36.5983 10.1235 35.4925 10.6861 35.4279 10.6861C35.3762 10.6861 35.3568 10.2593 35.3568 9.17294C35.3568 7.67917 35.3568 7.6533 35.2145 7.5563C34.9882 7.40111 34.2962 7.41404 34.1281 7.58217Z" fill="white"/>
<path d="M46.7702 7.52393C46.628 7.55626 46.3693 7.61446 46.1883 7.65972C46.0137 7.69852 45.8197 7.75026 45.7679 7.77612C45.0631 8.09945 44.8173 8.28051 44.5393 8.68144L44.3776 8.90777V11.559V14.2103L44.5587 14.4819C44.7656 14.7794 45.0695 15.0122 45.5222 15.2126C46.2723 15.5424 47.1518 15.6071 50.482 15.5877C53.1657 15.5683 53.282 15.5618 53.3726 15.4454C53.5148 15.2514 53.489 14.7212 53.3338 14.566C53.2109 14.4431 53.1139 14.4367 50.3139 14.4367C47.2423 14.4302 46.6603 14.3979 46.2594 14.2039C45.8197 13.9905 45.7356 13.8159 45.7162 13.0076C45.6968 12.5161 45.7162 12.2704 45.7679 12.2057C45.8391 12.1216 46.3823 12.1087 49.5573 12.1087H53.2626L53.3596 11.9664C53.4178 11.8824 53.4631 11.6884 53.4631 11.5202C53.4631 10.9771 53.7218 11.0094 49.5444 11.0094C47.5204 11.0094 45.8261 10.9835 45.7809 10.9512C45.7097 10.9124 45.6968 10.7119 45.7162 10.0717L45.7356 9.25049L45.9813 9.03063C46.337 8.73317 46.6603 8.6685 48.1282 8.63617C49.331 8.6103 49.4345 8.59737 49.5703 8.46804C49.7772 8.28051 49.7707 7.78905 49.5638 7.59506C49.4215 7.45926 49.3633 7.4528 48.2187 7.45926C47.5656 7.46573 46.9125 7.49159 46.7702 7.52393Z" fill="white"/>
<path d="M54.821 7.58219C54.6917 7.71152 54.6917 7.79558 54.6917 11.5138C54.6917 14.6954 54.7046 15.3356 54.7822 15.4455C54.8728 15.5619 54.9892 15.5684 58.6169 15.5684C62.0506 15.5684 62.3934 15.5554 62.8072 15.4455C63.9195 15.1545 64.5079 14.7148 64.7601 13.9905C64.8183 13.8224 64.8442 13.1434 64.8442 11.4815C64.8442 9.34755 64.8377 9.17942 64.7148 8.84963C64.4627 8.17711 63.8225 7.78265 62.6132 7.54339C62.264 7.47225 61.3587 7.45286 58.5587 7.45286C55.0344 7.45286 54.9504 7.45286 54.821 7.58219ZM62.4192 8.70736C62.8266 8.81083 63.0917 8.95309 63.2599 9.13415C63.3827 9.26995 63.3892 9.36695 63.3892 11.488C63.3892 13.5896 63.3827 13.6995 63.2599 13.8677C63.0465 14.1522 62.6973 14.3074 62.1153 14.3785C61.8114 14.4108 60.3952 14.4302 58.8626 14.4238L56.1467 14.4044L56.1273 11.5914C56.1208 10.0459 56.1273 8.7397 56.1467 8.69443C56.1919 8.57803 61.9666 8.5845 62.4192 8.70736Z" fill="white"/>
<path d="M37.4972 18.1486C37.4067 18.2004 37.3162 18.2909 37.2903 18.3556C37.2644 18.4267 37.2386 19.8881 37.2386 21.6147C37.2321 25.2748 37.1868 25.042 37.8464 25.042C38.4931 25.042 38.4607 25.1972 38.4607 22.2484C38.4607 20.6382 38.4866 19.7394 38.5254 19.7394C38.5577 19.7394 39.9093 20.8516 41.5194 22.2161C43.1361 23.5805 44.5522 24.7704 44.6816 24.8674C44.8626 25.0096 44.979 25.042 45.2635 25.042C45.7097 25.042 45.8973 24.8932 45.8973 24.5376C45.9102 19.7653 45.8908 18.2262 45.8197 18.1745C45.7744 18.1486 45.5416 18.1228 45.3023 18.1228C44.9402 18.1228 44.8562 18.1422 44.798 18.2456C44.7592 18.3297 44.7333 19.2738 44.7333 20.871C44.7333 22.9921 44.7204 23.3671 44.6428 23.3477C44.5652 23.3348 41.4677 20.7482 39.2432 18.8535C38.3508 18.084 37.9176 17.9158 37.4972 18.1486Z" fill="white"/>
<path d="M7.61534 18.2132C7.09801 18.3102 6.75529 18.4719 6.47723 18.7435C6.01164 19.2155 5.85644 20.192 6.14743 20.858C6.36729 21.3495 6.72295 21.6146 7.38901 21.7957C8.06153 21.9768 8.35899 22.0026 9.87216 22.0026C11.4694 22.0026 12.1031 22.0673 12.4782 22.2678C12.6916 22.3841 12.8532 22.7269 12.8532 23.0567C12.8532 23.6581 12.5687 23.9103 11.7604 24.0137C11.5276 24.046 10.2149 24.0654 8.84398 24.0719C5.9987 24.0719 6.06337 24.059 6.06337 24.5504C6.06337 25.0613 5.92757 25.0419 9.12204 25.0419C10.8551 25.0419 12.0708 25.016 12.2842 24.9708C13.2736 24.7768 13.668 24.5504 13.8943 24.0396C14.0495 23.7033 14.0689 22.5199 13.9202 22.1902C13.7197 21.7375 13.4029 21.4918 12.6851 21.2525C12.1936 21.0908 12.0966 21.0844 10.105 21.0326C7.98393 20.9744 7.86753 20.9615 7.47307 20.6899C7.30494 20.58 7.29201 20.5412 7.29201 20.1015C7.29201 19.5777 7.38254 19.4225 7.76407 19.2673C8.06153 19.1379 8.88924 19.028 9.51003 19.028C9.83983 19.028 10.0791 18.9957 10.1244 18.9504C10.2278 18.847 10.2278 18.3038 10.1244 18.2003C10.0209 18.0968 8.19086 18.1098 7.61534 18.2132Z" fill="white"/>
<path d="M17.2829 18.2132C16.5909 18.3813 15.9831 18.8081 15.7697 19.2802C15.6856 19.4742 15.6662 19.8233 15.6468 21.343C15.6339 22.5393 15.6533 23.2894 15.6985 23.5222C15.802 24.0266 16.093 24.3758 16.6039 24.6409C17.3798 25.0289 17.4898 25.0418 20.5937 25.0418C23.7623 25.0418 23.5813 25.0742 23.5877 24.5504C23.5877 24.0654 23.7106 24.0848 20.5485 24.0589C17.9877 24.0395 17.7096 24.0266 17.4574 23.9167C16.9143 23.6839 16.9272 23.7356 16.9272 21.5176V19.5582L17.1277 19.3901C17.2376 19.2996 17.3863 19.209 17.4639 19.1896C18.033 19.0603 18.7637 19.028 20.9882 19.028C23.827 19.028 23.6136 19.0668 23.6136 18.5624C23.6071 18.0968 23.7753 18.1226 20.5226 18.1291C18.4662 18.1291 17.5092 18.155 17.2829 18.2132Z" fill="white"/>
<path d="M25.2173 18.2066C25.1139 18.3295 25.1009 24.7184 25.1979 24.906C25.2626 25.0223 25.3337 25.0417 25.7088 25.0417C25.9674 25.0417 26.1808 25.0094 26.2261 24.9641C26.336 24.8542 26.336 18.3101 26.2261 18.2002C26.1162 18.0902 25.3079 18.0967 25.2173 18.2066Z" fill="white"/>
<path d="M29.6857 18.2196C28.942 18.3812 28.3794 18.7175 28.1272 19.1507L27.9526 19.4482V21.5498C27.9526 22.7073 27.972 23.729 28.0044 23.826C28.1143 24.2334 28.664 24.6538 29.3106 24.8284C30.0025 25.0223 30.3582 25.0417 32.9577 25.0417C34.9688 25.0417 35.6737 25.0223 35.7319 24.9641C35.8224 24.8736 35.8353 24.3369 35.7448 24.2011C35.6931 24.117 35.2728 24.0976 32.8219 24.0718C30.2353 24.0394 29.9314 24.0265 29.6792 23.9166C29.2136 23.7161 29.1489 23.5738 29.1489 22.8043V22.1318H32.3369C35.997 22.1318 35.8095 22.1577 35.8095 21.6016C35.8095 21.3623 35.7771 21.2524 35.6995 21.1877C35.609 21.1166 34.9365 21.1036 32.3693 21.0972H29.1489V20.3664C29.1489 19.7198 29.1619 19.6163 29.2783 19.4935C29.5693 19.1831 30.3647 19.0279 31.6709 19.0279C32.1688 19.0279 32.4469 19.002 32.4986 18.9503C32.615 18.8339 32.5956 18.3424 32.4727 18.226C32.3887 18.142 32.1882 18.1226 31.2312 18.129C30.5328 18.129 29.9314 18.1678 29.6857 18.2196Z" fill="white"/>
<path d="M49.2274 18.2196C48.6196 18.3683 48.1281 18.6851 47.8501 19.1119L47.6755 19.3835V21.5175C47.6755 23.4122 47.6884 23.6773 47.7854 23.8842C47.9341 24.1882 48.3286 24.5438 48.7166 24.7184C49.3891 25.0288 49.5508 25.0417 52.5577 25.0417H55.3965L55.4935 24.8995C55.6229 24.7184 55.6293 24.3951 55.5065 24.227C55.4159 24.1106 55.2866 24.1041 52.5771 24.0718C49.4473 24.033 49.3826 24.02 49.0334 23.6062L48.8718 23.4122V21.524C48.8718 19.4482 48.8718 19.4482 49.2792 19.2607C49.6866 19.0731 50.4238 19.0279 52.9328 19.0279C55.7457 19.0279 55.6164 19.0473 55.6164 18.5752C55.6164 18.0967 55.791 18.1226 52.4995 18.129C50.4044 18.1355 49.4538 18.1614 49.2274 18.2196Z" fill="white"/>
<path d="M58.895 18.2197C58.2678 18.3619 57.828 18.5689 57.537 18.8534C57.1167 19.2672 57.1167 19.2543 57.0973 21.4206C57.0844 22.7204 57.1038 23.4899 57.149 23.6774C57.3236 24.3693 57.841 24.7185 59.0761 24.9707C59.5805 25.0742 64.7925 25.0677 64.896 24.9643C64.9412 24.919 64.9736 24.7315 64.9736 24.5439C64.9736 24.2853 64.9477 24.1883 64.8572 24.143C64.7925 24.1107 63.5574 24.0719 61.9343 24.0589C59.2442 24.0395 59.1084 24.0331 58.8303 23.9037C58.3842 23.6968 58.3518 23.6322 58.326 22.8368L58.3001 22.1319H61.501C65.1676 22.1319 64.9736 22.1642 64.993 21.5952C65.0124 21.0714 65.1934 21.0973 61.5334 21.0973H58.313V20.3924C58.313 19.6035 58.3906 19.4289 58.7915 19.2608C59.1084 19.1314 59.9879 19.028 60.835 19.028C61.3329 19.028 61.611 19.0021 61.6627 18.9504C61.7597 18.8534 61.7662 18.4201 61.6756 18.2455C61.611 18.1291 61.5334 18.1227 60.4276 18.1291C59.7357 18.1356 59.1084 18.1679 58.895 18.2197Z" fill="white"/>
</svg>
