<svg width="447" height="413" viewBox="0 0 447 413" fill="none" xmlns="http://www.w3.org/2000/svg">
<path d="M447 434.548C447 434.548 422.402 311.883 402.596 301.112C382.79 290.342 299.81 264.624 299.81 264.624C291.99 253.68 268.696 235.956 268.696 235.956H178.304C155.201 253.529 154.843 253.909 147.19 264.624C147.19 264.624 57.3354 290.336 37.5294 301.112C17.7235 311.883 0 434.548 0 434.548" fill="#E3E2DC"/>
<path d="M211.719 310.164L226.324 327.518L204.565 434.548H269.245L250.105 327.49L262.37 310.164L238.791 287.806L211.719 310.164Z" fill="url(#paint0_linear_1345_4395)"/>
<path d="M155.145 267.664L238.215 451.745L296.905 268.274" stroke="#D5E32D" stroke-width="10" stroke-miterlimit="10"/>
<path d="M147.19 264.624C147.19 264.624 166.794 305.804 198.065 321.439L238.786 287.806C238.786 287.806 266.306 311.279 273.231 321.439C273.231 321.439 297.565 291.467 299.805 264.624" fill="#E3E2DC"/>
<path d="M147.19 264.624C147.19 264.624 166.794 305.804 198.065 321.439L238.786 287.806C238.786 287.806 266.306 311.279 273.231 321.439C273.231 321.439 297.565 291.467 299.805 264.624" stroke="#B0AFAB" stroke-width="2" stroke-miterlimit="10"/>
<path d="M298.052 136.02C298.052 136.02 324.985 93.1721 313.234 80.2909C320.305 67.964 311.381 29.0295 299.911 30.597C292.611 17.044 268.114 1.40857 253.044 9.74969C233.803 -6.40633 196.705 0.887998 199.314 14.2058C180.028 18.1356 141.878 43.6292 151.781 48.8466C151.781 48.8466 129.886 81.1642 148.651 83.7338C144.481 88.3913 141.878 108.975 151.26 106.367C144.223 121.817 164.65 173.941 180.549 184.365" fill="#595568"/>
<path d="M178.304 164.492V256.462C178.304 256.462 208.998 286.826 238.791 286.434C238.791 286.434 260.383 283.669 273.236 265.688L266.356 193.361" fill="url(#paint1_linear_1345_4395)"/>
<path d="M271.646 248.95L266.362 193.355L180.997 158.228L181.019 176.936C181.019 224.066 236.02 252.868 271.646 248.955V248.95Z" fill="#DB726D"/>
<path d="M181.288 175.234C181.288 249.717 305.985 243.374 303.225 200.784C299.29 139.955 303.914 131.575 303.914 79.1883C303.914 26.8016 196.017 33.3065 181.165 74.6202" fill="url(#paint2_linear_1345_4395)"/>
<path d="M262.336 188.194C270.392 188.255 266.283 195.589 266.283 195.589" stroke="#DB726D" stroke-width="2" stroke-miterlimit="10"/>
<path d="M265.287 232.413C265.287 232.413 267.655 224.816 264.833 218.507" stroke="#DB726D" stroke-width="2" stroke-miterlimit="10"/>
<path d="M182.458 128.418C158.006 85.8445 128.599 147.518 184.893 169.759Z" fill="url(#paint3_linear_1345_4395)"/>
<path d="M228.894 125.165C228.894 123.295 227.378 121.778 225.508 121.778C223.637 121.778 222.121 123.295 222.121 125.165V137.475C222.121 139.346 223.637 140.862 225.508 140.862C227.378 140.862 228.894 139.346 228.894 137.475V125.165Z" fill="#383633"/>
<path d="M281.751 125.165C281.751 123.295 280.235 121.778 278.364 121.778C276.494 121.778 274.978 123.295 274.978 125.165V137.475C274.978 139.346 276.494 140.862 278.364 140.862C280.235 140.862 281.751 139.346 281.751 137.475V125.165Z" fill="#383633"/>
<path d="M260.109 121.286C260.109 128.899 272.1 162.678 263.238 169.815C254.377 176.953 242.341 172.195 242.341 172.195" stroke="#DB726D" stroke-width="2" stroke-miterlimit="10"/>
<path d="M207.728 107.223C207.728 107.223 218.543 100.388 232.745 102.409" stroke="#595568" stroke-width="12" stroke-miterlimit="10"/>
<path d="M270.012 102.409C270.012 102.409 285.91 102.258 295.718 109.289" stroke="#595568" stroke-width="12" stroke-miterlimit="10"/>
<path d="M242.34 172.195C232.488 170.767 235.874 178.638 250.469 177.921C265.063 177.21 260.114 172.43 260.114 172.43C260.114 172.43 252.036 175.05 242.34 172.195Z" fill="#DB726D" stroke="#DB726D" stroke-width="2" stroke-miterlimit="10"/>
<path d="M228.329 182.209C228.329 182.209 250.105 196.496 266.362 185.955" stroke="#DB726D" stroke-width="2" stroke-miterlimit="10"/>
<path d="M172.326 127.018C163.206 115.553 154.02 134.318 168.709 151.258" stroke="#DB726D" stroke-width="2" stroke-miterlimit="10"/>
<path d="M177.279 58.8619L176.025 119.131L183.907 130.26C184.669 131.34 186.365 130.825 186.404 129.504L188.095 70.433C200.069 73.2545 210.263 64.807 212.922 60.5357C206.86 71.9333 229.772 87.3616 296.787 56.8242C299.827 48.3991 244.518 4.12956 177.279 58.8563V58.8619Z" fill="#595568"/>
<path d="M228.329 62.7356C228.329 62.7356 273.488 68.2945 303.029 42.9297" stroke="#44414F" stroke-width="2" stroke-miterlimit="10"/>
<path d="M296.905 38.4119C296.905 38.4119 280.626 47.9677 261.34 46.9265" stroke="#44414F" stroke-width="2" stroke-miterlimit="10"/>
<path d="M168.216 71.0767C168.216 71.0767 178.013 81.3547 189.556 81.685" stroke="#44414F" stroke-width="2" stroke-miterlimit="10"/>
<path d="M168.216 87.8652C168.216 87.8652 176.826 98.1433 188.369 98.4736" stroke="#44414F" stroke-width="2" stroke-miterlimit="10"/>
<path d="M226.324 327.518C226.324 327.518 240.896 322.598 250.105 327.49" stroke="#5575A3" stroke-width="2" stroke-miterlimit="10"/>
<path d="M52.387 293.034L62.2899 317.582L138.911 293.034L128.487 269.041L52.387 293.034Z" fill="#2F3F4A"/>
<path d="M67.4344 279.946L85.2363 326.248" stroke="#EDAE00" stroke-width="14" stroke-miterlimit="10"/>
<path d="M79.6158 274.762L97.4177 321.064" stroke="#EDAE00" stroke-width="14" stroke-miterlimit="10"/>
<path d="M91.8311 266.628L109.633 312.924" stroke="#EDAE00" stroke-width="14" stroke-miterlimit="10"/>
<path d="M104.012 261.232L121.82 307.528" stroke="#EDAE00" stroke-width="14" stroke-miterlimit="10"/>
<path d="M393.975 292.346L384.072 316.894L307.451 292.346L317.875 268.353L393.975 292.346Z" fill="#2F3F4A"/>
<path d="M378.928 279.263L361.126 325.559" stroke="#EDAE00" stroke-width="14" stroke-miterlimit="10"/>
<path d="M366.746 274.074L348.944 320.375" stroke="#EDAE00" stroke-width="14" stroke-miterlimit="10"/>
<path d="M354.531 265.94L336.729 312.236" stroke="#EDAE00" stroke-width="14" stroke-miterlimit="10"/>
<path d="M342.349 260.543L324.542 306.839" stroke="#EDAE00" stroke-width="14" stroke-miterlimit="10"/>
<path d="M107.108 391.807H190.508C190.508 391.807 192.07 413.701 190.508 416.825L149.855 426.94C149.855 426.94 98.7724 419.428 95.6487 417.866C92.5194 416.304 93.04 401.71 93.04 401.71" fill="#E3E2DC"/>
<path d="M107.108 391.807H190.508C190.508 391.807 192.07 413.701 190.508 416.825L149.855 426.94C149.855 426.94 98.7724 419.428 95.6487 417.866C92.5194 416.304 93.04 401.71 93.04 401.71" stroke="#B0AFAB" stroke-width="2" stroke-miterlimit="10"/>
<path d="M95.6483 391.807H102.153" stroke="#B0AFAB" stroke-width="2" stroke-miterlimit="10"/>
<path d="M367.362 391.807H376.856C376.856 391.807 378.345 413.701 376.856 416.825L338.117 426.94C338.117 426.94 289.448 419.428 286.464 417.866C283.486 416.304 283.978 401.71 283.978 401.71" fill="#E3E2DC"/>
<path d="M367.362 391.807H376.856C376.856 391.807 378.345 413.701 376.856 416.825L338.117 426.94C338.117 426.94 289.448 419.428 286.464 417.866C283.486 416.304 283.978 401.71 283.978 401.71" stroke="#B0AFAB" stroke-width="2" stroke-miterlimit="10"/>
<path d="M286.465 391.807H346.23" stroke="#B0AFAB" stroke-width="2" stroke-miterlimit="10"/>
<path d="M73.5419 409.441C75.1205 418.106 77.8524 428.088 77.5053 434.548Z" fill="#E3E2DC"/>
<path d="M73.5419 409.441C75.1205 418.106 77.8524 428.088 77.5053 434.548" stroke="#B0AFAB" stroke-width="2" stroke-miterlimit="10"/>
<path d="M72.5509 402.18C72.6517 403.635 72.8476 405.203 73.0995 406.832Z" fill="#E3E2DC"/>
<path d="M72.5509 402.18C72.6517 403.635 72.8476 405.203 73.0995 406.832" stroke="#B0AFAB" stroke-width="2" stroke-miterlimit="10"/>
<path d="M383.697 405.102C383.249 419.96 389.552 427.063 389.552 434.542Z" fill="#E3E2DC"/>
<path d="M383.697 405.102C383.249 419.96 389.552 427.063 389.552 434.542" stroke="#B0AFAB" stroke-width="2" stroke-miterlimit="10"/>
<path d="M46.4137 306.134C50.2932 310.041 54.6429 315.387 56.0424 320.795Z" fill="#E3E2DC"/>
<path d="M46.4137 306.134C50.2932 310.041 54.6429 315.387 56.0424 320.795" stroke="#B0AFAB" stroke-width="2" stroke-miterlimit="10"/>
<path d="M39.5499 300.077C39.5499 300.077 40.8879 301.073 42.8136 302.758Z" fill="#E3E2DC"/>
<path d="M39.5499 300.077C39.5499 300.077 40.8879 301.073 42.8136 302.758" stroke="#B0AFAB" stroke-width="2" stroke-miterlimit="10"/>
<path d="M313.089 372.84H269.452L280.704 332.853C281.236 330.967 282.954 329.668 284.908 329.668H321.962C323.602 329.668 324.789 331.235 324.347 332.814L313.083 372.84H313.089Z" fill="#F2A900"/>
<path d="M335.391 503.437H167.701L210.952 349.765C212.989 342.521 219.595 337.522 227.119 337.522H369.528C375.837 337.522 380.4 343.546 378.687 349.619L335.397 503.443L335.391 503.437Z" fill="#595568"/>
<defs>
<linearGradient id="paint0_linear_1345_4395" x1="236.905" y1="288.601" x2="236.905" y2="422.568" gradientUnits="userSpaceOnUse">
<stop stop-color="#7A94B9"/>
<stop offset="0.02" stop-color="#7993B8"/>
<stop offset="0.57" stop-color="#6988B6"/>
<stop offset="1" stop-color="#6485B5"/>
</linearGradient>
<linearGradient id="paint1_linear_1345_4395" x1="225.77" y1="287.039" x2="225.77" y2="158.619" gradientUnits="userSpaceOnUse">
<stop stop-color="#F29A86"/>
<stop offset="0.17" stop-color="#F5A08D"/>
<stop offset="0.64" stop-color="#FBAF9D"/>
<stop offset="1" stop-color="#FEB4A3"/>
</linearGradient>
<linearGradient id="paint2_linear_1345_4395" x1="242.542" y1="287.039" x2="242.542" y2="158.619" gradientUnits="userSpaceOnUse">
<stop stop-color="#F29A86"/>
<stop offset="0.17" stop-color="#F5A08D"/>
<stop offset="0.64" stop-color="#FBAF9D"/>
<stop offset="1" stop-color="#FEB4A3"/>
</linearGradient>
<linearGradient id="paint3_linear_1345_4395" x1="168.748" y1="287.039" x2="168.748" y2="158.619" gradientUnits="userSpaceOnUse">
<stop stop-color="#F29A86"/>
<stop offset="0.17" stop-color="#F5A08D"/>
<stop offset="0.64" stop-color="#FBAF9D"/>
<stop offset="1" stop-color="#FEB4A3"/>
</linearGradient>
</defs>
</svg>
