<svg width="87" height="29" viewBox="0 0 87 29" fill="none" xmlns="http://www.w3.org/2000/svg">
<g clip-path="url(#clip0_1243_3342)">
<path d="M27.8003 14.8129C27.8003 22.4921 21.5814 28.7101 13.9044 28.7101C6.2264 28.7101 0 22.4921 0 14.8129C0 7.13361 6.2264 0.909668 13.9044 0.909668C21.5815 0.909668 27.8003 7.13361 27.8003 14.8129Z" fill="#BED600"/>
<path d="M43.9268 7.69434H46.2554V9.7832H43.9268V7.69434ZM43.9269 10.9981H46.2555V19.7817H43.9269V10.9981Z" fill="white"/>
<path d="M49.7999 12.4022H49.8513C50.3821 11.409 50.9813 10.8953 52.0086 10.8953C52.2653 10.8953 52.4196 10.9125 52.5565 10.9638V13.0013H52.5051C50.9814 12.8473 49.8855 13.652 49.8855 15.5011V19.7816H47.5569V10.998H49.7999V12.4022Z" fill="white"/>
<path d="M57.0934 7.69434H59.422V9.7832H57.0934V7.69434ZM57.0935 10.9981H59.4222V19.7817H57.0935V10.9981Z" fill="white"/>
<path d="M63.0003 12.1965H63.0516C63.6509 11.2548 64.4554 10.7583 65.654 10.7583C67.4692 10.7583 68.6846 12.128 68.6846 14.0457V19.7816H66.3562V14.3881C66.3562 13.4464 65.8081 12.7786 64.8322 12.7786C63.805 12.7786 63.0516 13.6005 63.0516 14.799V19.7816H60.7232V10.998H63.0004V12.1965H63.0003Z" fill="white"/>
<path d="M69.6431 15.3814C69.6431 12.7789 71.4065 10.7585 73.9748 10.7585C76.8 10.7585 78.3066 12.9159 78.3066 16.0491H71.9374C72.1087 17.4017 72.862 18.2408 74.1804 18.2408C75.0877 18.2408 75.6185 17.8298 75.8754 17.162H78.1698C77.8445 18.7202 76.4575 20.0387 74.1975 20.0387C71.2868 20.0386 69.6431 18.0009 69.6431 15.3814ZM71.9716 14.4397H75.8754C75.8068 13.3267 75.0707 12.5561 74.0091 12.5561C72.7763 12.5561 72.177 13.2925 71.9716 14.4397Z" fill="white"/>
<path d="M78.843 16.9393H81.0003C81.1546 17.9496 81.8735 18.3947 82.9181 18.3947C83.9456 18.3947 84.5276 18.0009 84.5276 17.3847C84.5276 16.5457 83.4147 16.46 82.2162 16.2205C80.6409 15.9122 79.0999 15.4841 79.0999 13.5665C79.0999 11.666 80.6753 10.7585 82.6785 10.7585C84.9898 10.7585 86.274 11.9057 86.4453 13.6692H84.3393C84.2364 12.7276 83.6371 12.3851 82.6442 12.3851C81.7367 12.3851 81.1374 12.7276 81.1374 13.361C81.1374 14.1143 82.3017 14.1829 83.5517 14.4398C85.0242 14.748 86.6508 15.1589 86.6508 17.2136C86.6508 18.9771 85.1439 20.0388 82.9524 20.0388C80.4011 20.0386 78.9802 18.8059 78.843 16.9393Z" fill="white"/>
<path d="M38.4328 7.69434H35.7226L30.8224 19.7816H33.5962L34.5036 17.299H39.5033L40.4278 19.7816H43.2188L38.4328 7.69434ZM35.1713 15.2614L36.9692 10.1247L38.8183 15.2613H35.1713V15.2614Z" fill="white"/>
<path d="M55.7925 7.69434H53.4636V19.7816H55.7925V7.69434Z" fill="white"/>
<path d="M12.8915 7.6936C10.702 7.6936 9.28158 7.81463 8.25338 8.19633C6.52552 8.86941 5.33226 10.2801 5.33226 12.134C5.33226 13.6781 6.05123 14.7963 8.13196 16.0824C10.3521 17.4283 10.795 17.873 10.795 18.684C10.795 19.5716 9.92534 20.5818 7.68779 20.5818C6.90683 20.5818 5.73053 20.4738 4.9789 20.2899L4.62024 20.1995C4.42017 20.7358 3.96599 22.0046 3.82751 22.465L4.18264 22.5694C4.85876 22.7851 6.46334 22.9535 7.61296 22.9535C11.4373 22.9535 13.7191 20.6429 13.7191 18.2235C13.7191 16.7368 13.0443 15.6069 10.763 14.1834C9.61866 13.4796 9.03551 13.0231 8.68137 12.6698C8.39431 12.3009 8.36253 12.0264 8.36253 11.7364C8.36253 11.4595 8.42412 11.1405 8.60664 10.9068C8.80406 10.6179 9.16615 10.4338 9.65622 10.2819C10.1599 10.1147 11.0932 10.1103 12.5467 10.1103H13.9002L14.8666 7.6937H12.8915V7.6936ZM23.1197 7.6936H16.3186L15.352 10.1101H17.6064C19.1233 10.1101 19.415 10.0775 19.796 10.0775C19.2461 11.3355 15.9319 19.781 15.9319 19.781H18.7368C18.7368 19.781 22.9327 9.26778 23.3774 8.16553C23.5006 7.91957 23.4394 7.6936 23.1197 7.6936Z" fill="white"/>
</g>
<defs>
<clipPath id="clip0_1243_3342">
<rect width="86.7359" height="28" fill="white" transform="translate(0 0.954834)"/>
</clipPath>
</defs>
</svg>
