<svg width="212" height="171" viewBox="0 0 212 171" fill="none" xmlns="http://www.w3.org/2000/svg">
<path d="M194.686 23.4616C174.047 45.9802 94.5224 48.1321 97.2839 57.7769C100.736 69.833 115.354 72.8855 106.377 63.8704C97.3999 54.8552 34.0281 84.9951 33.955 169.635" stroke="#495FE9" stroke-width="2" stroke-dasharray="4 4"/>
<path d="M37.4835 164.511C37.2991 164.824 37.1378 165.122 36.9045 165.408C36.1548 166.326 35.4353 167.253 34.8045 168.263C34.5227 168.714 34.1251 169.208 34.0564 169.777C34.0515 169.818 34.0228 169.935 34.0204 169.893C34.0166 169.825 33.9793 169.747 33.9659 169.68C33.896 169.328 33.8913 168.982 33.7888 168.631C33.669 168.219 33.4805 167.817 33.2978 167.42C33.1244 167.044 32.957 166.649 32.7224 166.295C32.441 165.871 31.6142 164.62 31.216 164.285" stroke="#495FE9" stroke-width="2" stroke-linecap="round"/>
</svg>
