<svg width="110" height="67" viewBox="0 0 110 67" fill="none" xmlns="http://www.w3.org/2000/svg">
<path fill-rule="evenodd" clip-rule="evenodd" d="M8.2718 48.9776C8.82522 48.5568 10.1471 48.5419 11.2243 48.9442C17.3278 51.2239 23.5325 53.4322 29.7657 55.6507C30.7494 56.0008 31.7338 56.3512 32.7186 56.7021C33.8118 57.0917 34.2757 57.7582 33.7548 58.1908C33.2338 58.6234 31.9252 58.6583 30.832 58.2687C29.8526 57.9197 28.8715 57.5706 27.8895 57.221C21.6601 55.0039 15.3884 52.7718 9.22015 50.4679C8.14297 50.0656 7.71838 49.3984 8.2718 48.9776Z" fill="#4A60E9"/>
<path fill-rule="evenodd" clip-rule="evenodd" d="M52.6716 15.1072C53.1047 14.7983 53.8042 15.4288 54.234 16.5154C54.9654 18.3643 55.758 20.2236 56.5854 22.1644C56.927 22.9657 57.2745 23.7809 57.626 24.615C58.8022 27.4054 59.993 30.3381 60.9593 33.2763C61.3271 34.3946 61.2306 35.431 60.7437 35.5911C60.2569 35.7512 59.564 34.9744 59.1963 33.8561C58.3592 31.3108 57.295 28.6747 56.1376 25.9288C55.8203 25.1759 55.493 24.4082 55.1624 23.6326C54.3152 21.6451 53.4461 19.6063 52.6659 17.6341C52.2361 16.5475 52.2386 15.4161 52.6716 15.1072Z" fill="#4A60E9"/>
<path fill-rule="evenodd" clip-rule="evenodd" d="M99.1824 3.7124C99.7202 3.9593 100.33 5.08211 100.544 6.22026C101.7 12.3654 102.409 17.9794 102.54 23.3972C102.564 24.3894 102.114 24.6994 101.536 24.0896C100.957 23.4798 100.469 22.181 100.445 21.1889C100.325 16.2431 99.6809 11.0902 98.5962 5.32617C98.3821 4.18802 98.6445 3.46551 99.1824 3.7124Z" fill="#4A60E9"/>
</svg>
