<svg width="143" height="137" viewBox="0 0 143 137" fill="none" xmlns="http://www.w3.org/2000/svg">
<path fill-rule="evenodd" clip-rule="evenodd" d="M89.7936 81.2628C87.5533 93.7942 83.3695 106.419 74.7273 115.636C71.5526 119.021 67.1955 121.342 63.3635 123.894C63.0266 124.118 62.6362 124.048 62.4944 123.737C62.3516 123.427 62.5086 122.991 62.8445 122.768C66.5606 120.294 70.2212 117.923 73.2964 114.643C81.8087 105.566 86.1764 93.0049 88.3251 80.6637C88.2332 80.6366 88.1405 80.6105 88.0477 80.5845C86.008 80.0135 84.1473 77.811 82.7073 74.8633C80.6157 70.5853 79.3647 64.763 79.4896 60.5435C79.5463 58.5971 79.9138 56.9666 80.5636 55.9195C81.1044 55.0466 81.8274 54.5076 82.7393 54.3792C83.4912 54.2749 84.2034 54.4448 84.8626 54.86C85.7419 55.4148 86.5382 56.4219 87.2258 57.7379C89.7702 62.6074 91.272 71.0208 90.7417 75.0511C90.5757 76.3136 90.2116 78.4198 90.0006 79.6952C90.5754 79.8739 90.9251 79.935 91.4746 80.0398C92.2813 80.1935 93.0793 80.2077 93.9552 79.8484C95.5718 79.1859 96.7738 77.8551 97.7909 76.2586C99.4208 73.7033 100.004 70.6431 100.613 68.1784C104.034 54.3164 100.326 42.5445 94.263 33.1957C88.1321 23.7403 80.0611 16.5939 75.7789 11.7903C75.5593 11.5425 75.6173 11.1034 75.9096 10.8113C76.2008 10.5182 76.6173 10.4813 76.8379 10.7279C81.1432 15.5581 89.2493 22.749 95.4124 32.2523C101.643 41.8622 105.879 53.8235 102.363 68.0728C101.714 70.6945 100.646 74.1099 98.913 76.83C97.686 78.7521 96.1296 80.3313 94.1834 81.129C93.0486 81.5941 92.009 81.6068 90.9678 81.4088C90.5011 81.3199 90.2739 81.4101 89.7936 81.2628ZM88.5676 79.2144C86.7666 78.6674 85.1922 76.6383 83.9171 74.0282C81.9072 69.9175 80.6949 64.3302 80.8137 60.2758C80.8543 58.9172 81.0374 57.7437 81.417 56.884C81.6905 56.2623 82.0685 55.8323 82.6189 55.7559C83.252 55.6677 83.8249 55.9062 84.359 56.3502C84.975 56.8609 85.5299 57.6421 86.0291 58.5994C88.4692 63.2694 89.5604 72.0357 89.0515 75.8994C88.9062 76.999 88.7451 78.1054 88.5676 79.2144Z" fill="#4A60E9"/>
<path fill-rule="evenodd" clip-rule="evenodd" d="M62.3901 123.37C62.6233 123.494 62.9876 123.569 63.3812 123.634C64.2712 123.782 65.3209 123.817 65.813 123.854C66.1492 123.88 66.3266 124.206 66.2072 124.583C66.0878 124.961 65.7177 125.245 65.3806 125.22C64.7799 125.174 63.3888 125.127 62.3912 124.897C61.8787 124.779 61.4629 124.601 61.2353 124.384C61.0132 124.17 60.9572 123.911 60.9922 123.635C61.0291 123.345 61.201 122.988 61.5344 122.597C61.9009 122.168 62.5136 121.628 63.1103 120.973C63.6111 120.423 64.109 119.782 64.358 119.034C64.4827 118.657 64.8554 118.377 65.19 118.409C65.5235 118.441 65.6949 118.772 65.5689 119.148C65.1034 120.553 64.0242 121.7 63.1368 122.577C62.8722 122.839 62.562 123.178 62.3901 123.37Z" fill="#484A98"/>
</svg>
