<svg width="92" height="92" viewBox="0 0 92 92" fill="none" xmlns="http://www.w3.org/2000/svg">
<path d="M71 30.5V36.7517C71 40.8333 68.5 43.4167 64.55 43.4167H56V25.3592C56 22.4917 58.275 20.1667 61.05 20.1667C63.775 20.1925 66.275 21.3292 68.075 23.1892C69.875 25.075 71 27.6583 71 30.5Z" stroke="#C4D600" stroke-width="2" stroke-miterlimit="10" stroke-linecap="round" stroke-linejoin="round"/>
<path d="M21 33.0833V69.25C21 71.3942 23.35 72.6083 25 71.3167L29.275 68.01C30.275 67.235 31.675 67.3383 32.575 68.2683L36.725 72.5825C37.7 73.59 39.3 73.59 40.275 72.5825L44.475 68.2425C45.35 67.3383 46.75 67.235 47.725 68.01L52 71.3167C53.65 72.5825 56 71.3683 56 69.25V25.3333C56 22.4917 58.25 20.1667 61 20.1667H31C23.5 20.1667 21 24.7908 21 30.5V33.0833Z" stroke="#C4D600" stroke-width="2" stroke-miterlimit="10" stroke-linecap="round" stroke-linejoin="round"/>
<path d="M31 38.25H46M32.875 48.5833H44.125" stroke="#C4D600" stroke-width="2" stroke-linecap="round" stroke-linejoin="round"/>
</svg>
