<svg width="92" height="92" viewBox="0 0 92 92" fill="none" xmlns="http://www.w3.org/2000/svg">
<path d="M19 75.5702C19.1154 74.7118 19.3434 73.6804 19.7061 72.5881C22.9353 62.8618 35.6367 66.427 44.4142 71.717V71.717C45.4093 72.3167 46.6554 72.3131 47.6469 71.7076L49.3822 70.6479C56.5011 66.3006 66.3227 61.75 70.5458 68.9432C71.5296 70.6189 72.3815 72.7832 73 75.554" stroke="#C4D600" stroke-width="2" stroke-linecap="round"/>
<path d="M63.0757 17.2418L62.5962 16.9421C61.6112 16.3264 60.4729 16 59.3113 16H33.624C32.4148 16 31.2256 16.3082 30.1686 16.8954L28.844 17.6313C26.6912 18.8273 25.6632 21.3619 26.3745 23.7196C27.0414 25.9299 29.0776 27.4424 31.3863 27.4424H60.1502C62.4132 27.4424 64.447 26.061 65.2813 23.9573C66.2637 21.4799 65.3357 18.6543 63.0757 17.2418Z" stroke="#C4D600" stroke-width="2"/>
<path d="M62.8955 35.8614V27.4424C62.8955 27.4424 56.2399 34 46 34C35.7601 34 28.903 27.4424 28.903 27.4424V35.8934C28.903 36.4626 28.6053 36.9904 28.1182 37.2849C26.8193 38.0703 26.0257 39.4777 26.0257 40.9956V43.1767C26.0257 45.2507 27.0992 47.1769 28.8632 48.2678C30.2952 49.1534 31.2487 50.6152 31.8031 52.205C33.8433 58.0554 39.2379 65.1455 46.5 64.5C54.4264 63.7954 58.6257 57.8291 60.3255 52.7548C60.9826 50.7933 61.9159 48.8937 63.4352 47.4899L64.5951 46.418C65.7299 45.3695 66.3751 43.8947 66.3751 42.3497V39.341C66.3751 37.9434 65.2421 36.8104 63.8445 36.8104C63.3204 36.8104 62.8955 36.3855 62.8955 35.8614Z" stroke="#C4D600" stroke-width="2"/>
</svg>
