<svg width="90" height="90" viewBox="0 0 90 90" fill="none" xmlns="http://www.w3.org/2000/svg">
<path d="M39.846 18H50.0248C50.5616 18 51.0765 18.1119 51.5474 18.3087C52.0359 18.5146 52.4759 18.8188 52.8412 19.1902C53.2108 19.5661 53.5057 20.0091 53.7081 20.5058C53.9017 20.9845 54.0118 21.5081 54.0118 22.054V26.5822C54.0118 27.0521 53.9326 27.5085 53.7829 27.9291C53.6553 28.2871 53.4837 28.6271 53.2681 28.9314C54.1086 29.0612 54.9051 29.3207 55.6444 29.6921C56.4761 30.1082 57.2287 30.6586 57.8756 31.3164C59.3806 32.8467 60.3135 34.9587 60.3135 37.281V55.2688C60.6392 55.1569 60.9648 55.0764 61.2861 55.0361C61.6689 54.9869 62.0518 54.9914 62.4259 55.054C62.9231 55.1346 63.3984 55.3091 63.8253 55.582C64.2345 55.846 64.6086 56.1995 64.9298 56.6559C65.5679 57.5643 65.9772 58.8887 65.9992 60.6786C66.0168 62.2402 65.7396 64.1553 65.0619 66.4597L64.1421 69.583C64.0717 69.8201 64.0189 70.017 63.9749 70.1871C63.9265 70.366 63.8913 70.5137 63.8605 70.6479C63.7769 70.9925 63.7153 71.261 63.6228 71.4892C63.526 71.7308 63.4028 71.9232 63.2092 72.1111C62.7075 72.581 62.2014 72.581 61.0397 72.581H60.802C52.6168 73.5833 37.8525 72.4557 28.8443 72.5854C27.7749 72.5944 27.2688 72.5989 26.7716 72.1559L26.7408 72.1335C26.3183 71.7442 26.2303 71.3057 26.0631 70.4958C26.0323 70.3526 26.0015 70.1915 25.9618 70.0125C25.9222 69.8336 25.8738 69.6233 25.8122 69.3682L25.0465 66.2852C24.9673 65.9586 24.9013 65.7125 24.8353 65.4664L24.8265 65.4261C24.4656 64.0345 24.0696 62.5131 24.0079 61.0052C23.9463 59.4839 24.2324 57.9804 25.2401 56.6649C25.4822 56.3516 25.7506 56.0832 26.0455 55.8594C26.3403 55.6357 26.666 55.4657 27.0048 55.3449C27.3261 55.233 27.6605 55.1659 28.0038 55.148C28.3426 55.1301 28.6903 55.1614 29.0423 55.242C29.1127 55.2598 29.1831 55.2777 29.2492 55.2956L29.2712 55.3001V37.2765C29.2712 36.14 29.4956 35.0482 29.9005 34.0548C30.3229 33.0212 30.9434 32.0905 31.7091 31.3119C32.3868 30.6228 33.179 30.0501 34.0591 29.6294C34.838 29.258 35.6829 29.003 36.5719 28.8911C36.365 28.5913 36.1978 28.2602 36.0746 27.9067C35.9294 27.4906 35.8502 27.0387 35.8502 26.5778V22.054C35.8502 21.5081 35.9602 20.9845 36.1538 20.5058C36.3562 20.0091 36.6555 19.5616 37.0208 19.1902L37.0296 19.1813C37.3948 18.8099 37.8305 18.5101 38.3145 18.3087C38.7942 18.1119 39.3091 18 39.846 18ZM51.5606 39.035C51.7102 38.8023 51.939 38.6547 52.1855 38.6055C52.4319 38.5518 52.696 38.5965 52.9204 38.7442L52.9336 38.7531C53.158 38.9052 53.3033 39.1335 53.3517 39.384C53.4001 39.6346 53.3605 39.9031 53.2152 40.1313L53.2064 40.1402C52.5507 41.1515 51.9567 42.2164 51.433 43.3396C50.9093 44.4627 50.456 45.6395 50.0864 46.879C49.7167 48.1229 49.4263 49.4295 49.2282 50.8121C49.0302 52.1948 48.9246 53.649 48.9158 55.1838C48.9158 55.4612 48.8058 55.7118 48.6253 55.8908C48.4449 56.0742 48.1985 56.1861 47.9256 56.1861C47.6528 56.1861 47.4064 56.0742 47.2259 55.8908L47.2171 55.8818C47.0455 55.7028 46.9355 55.4523 46.9355 55.1793C46.9399 53.5416 47.0543 51.9845 47.2699 50.5078C47.4812 49.0312 47.7936 47.6262 48.1897 46.2928C48.5901 44.9549 49.0742 43.6841 49.6375 42.4804C50.2096 41.2768 50.8521 40.1313 51.5606 39.035ZM36.7171 40.1492L36.6995 40.1223C36.5587 39.8941 36.5147 39.6301 36.5675 39.384C36.6159 39.1379 36.7567 38.9097 36.9767 38.7576L37.0031 38.7397C37.2276 38.5965 37.4872 38.5518 37.7293 38.6055C37.9757 38.6591 38.2045 38.8068 38.3542 39.035C39.0627 40.1313 39.7052 41.2768 40.2685 42.4804C40.8317 43.6886 41.3202 44.9549 41.7207 46.2928C42.1211 47.6307 42.4292 49.0312 42.6404 50.5078C42.8517 51.9845 42.9661 53.5371 42.9705 55.1793C42.9705 55.4567 42.8605 55.7073 42.68 55.8863C42.504 56.0697 42.2532 56.1816 41.9847 56.1816C41.7119 56.1816 41.4654 56.0697 41.2894 55.8863C41.109 55.7028 40.999 55.4523 40.999 55.1748C40.9946 53.64 40.8889 52.1858 40.6909 50.8032C40.4929 49.4205 40.2024 48.1139 39.8328 46.87C39.4631 45.6305 39.0099 44.4537 38.4862 43.3306C37.9669 42.2209 37.3728 41.1604 36.7171 40.1492ZM58.3332 56.4546V37.2765C58.3332 36.4084 58.1616 35.5806 57.8536 34.8244C57.5323 34.0369 57.0614 33.3299 56.4761 32.7348C55.8909 32.1397 55.1956 31.6609 54.421 31.3343C53.6773 31.021 52.8632 30.8465 52.0095 30.8465H37.584C36.7303 30.8465 35.9162 31.021 35.1725 31.3343C34.3979 31.6609 33.7026 32.1397 33.1173 32.7348C32.5321 33.3299 32.0612 34.0369 31.7399 34.8244C31.4319 35.5806 31.2603 36.4084 31.2603 37.2765V56.3964C31.8368 56.8931 32.4088 57.5419 32.9457 58.3607C33.4386 59.108 33.9007 59.9984 34.3231 61.0321C35.8898 60.2266 37.5092 59.6315 39.1771 59.2378C40.8933 58.8306 42.6624 58.6382 44.4843 58.6471C46.2974 58.6561 48.1589 58.8753 50.0644 59.287C51.9214 59.6897 53.8225 60.2759 55.7632 61.0455C55.9613 60.1148 56.2825 59.2691 56.6918 58.5308C57.1451 57.703 57.7127 57.0049 58.3332 56.4546ZM29.9225 57.882C29.8388 57.8506 29.764 57.8059 29.6936 57.7567C29.6232 57.703 29.5572 57.6403 29.5 57.5732C29.3504 57.4792 29.2051 57.3987 29.0599 57.3361C28.9103 57.2689 28.7607 57.2197 28.6155 57.1839C28.4438 57.1436 28.2766 57.1302 28.1182 57.1347C27.9598 57.1392 27.8057 57.1705 27.6605 57.2197C27.5021 57.2734 27.3525 57.3584 27.2072 57.4703C27.062 57.5822 26.93 57.7164 26.8024 57.882C26.1027 58.7992 25.931 59.9537 26.0103 61.1708C26.0895 62.4058 26.4327 63.7123 26.7408 64.9026L26.754 64.9607C26.8332 65.274 26.9124 65.5738 26.9652 65.7796L27.7309 68.8626C27.8409 69.3145 27.9289 69.7306 27.9994 70.0707L28.0038 70.0841C28.0478 70.3123 28.0742 70.4734 28.0918 70.5763C28.0918 70.5898 28.0918 70.5942 28.0874 70.6032C28.0962 70.5987 28.1138 70.5942 28.1358 70.5942C28.2678 70.5853 28.4922 70.5674 28.8399 70.5629L29.4648 70.554H60.7668L60.802 70.5584H61.0353C61.4137 70.5584 61.6557 70.5719 61.7966 70.5808C61.8186 70.5808 61.8362 70.5853 61.8538 70.5942V70.5763C61.8714 70.4913 61.8934 70.3526 61.9418 70.1602L61.9462 70.1513C62.021 69.8336 62.1178 69.4353 62.2498 68.9923L63.1696 65.8691C63.7593 63.8689 64.0233 62.2402 64.0409 60.9426C64.0629 59.4883 63.7857 58.4592 63.3236 57.8014C63.1652 57.5777 62.9848 57.4032 62.7867 57.2734C62.5799 57.1392 62.3599 57.0542 62.1266 57.0184C61.8802 56.9781 61.6117 56.987 61.3389 57.0452C61.0617 57.1034 60.7756 57.2063 60.4896 57.3584C59.7282 57.7567 59.0065 58.4592 58.4653 59.4078C57.9768 60.258 57.6379 61.3095 57.5499 62.5221L57.5455 62.5489C57.5411 62.5937 57.5323 62.6384 57.5235 62.6832V62.6877C57.5103 62.7369 57.4971 62.7861 57.4751 62.8353C57.3695 63.0904 57.1715 63.2783 56.9382 63.3767C56.705 63.4752 56.4365 63.4797 56.1857 63.3723C54.1218 62.4863 52.1107 61.8106 50.1568 61.3498C48.2073 60.8933 46.315 60.6562 44.4843 60.6428C42.6712 60.6338 40.9109 60.8441 39.2123 61.2871C37.5136 61.7301 35.8722 62.4058 34.2923 63.3186L34.2131 63.3588C34.1867 63.3723 34.1559 63.3857 34.1295 63.3946L34.1207 63.3991C33.8655 63.4841 33.6014 63.4618 33.377 63.3499C33.1482 63.238 32.9633 63.0367 32.8753 62.7771C32.4704 61.5959 32.0172 60.6159 31.5331 59.815C31.0094 58.9738 30.4681 58.3294 29.9225 57.882ZM61.8758 70.6077L61.8802 70.6121C61.8802 70.6077 61.8802 70.6077 61.8758 70.6077ZM50.0248 20.0136H39.846C39.5775 20.0136 39.3179 20.0673 39.0803 20.1702C38.8338 20.2731 38.6138 20.4252 38.429 20.6132L38.4202 20.6221C38.2397 20.81 38.0901 21.0338 37.9889 21.2799C37.8921 21.517 37.8349 21.781 37.8349 22.0584V26.5867C37.8349 27.146 38.0593 27.6561 38.4246 28.0275L38.4334 28.0365C38.7942 28.4034 39.2959 28.6271 39.8416 28.6271H50.0204C50.5704 28.6271 51.0721 28.3989 51.4374 28.0275L51.4462 28.0186C51.807 27.6472 52.0271 27.1416 52.0271 26.5867V22.054C52.0271 21.781 51.9743 21.517 51.873 21.2754C51.7718 21.0248 51.6222 20.8011 51.433 20.6132C51.2481 20.4252 51.0237 20.2731 50.7817 20.1702C50.5528 20.0673 50.2976 20.0136 50.0248 20.0136Z" fill="#C4D600"/>
</svg>
