<svg width="42" height="42" viewBox="0 0 42 42" fill="none" xmlns="http://www.w3.org/2000/svg">
<path d="M16.2925 25.725L18.9175 28.35L25.9175 21.35" stroke="#C4D600" stroke-width="2" stroke-linecap="round" stroke-linejoin="round"/>
<path d="M17.5 10.5H24.5C28 10.5 28 8.75 28 7C28 3.5 26.25 3.5 24.5 3.5H17.5C15.75 3.5 14 3.5 14 7C14 10.5 15.75 10.5 17.5 10.5Z" stroke="#C4D600" stroke-width="2" stroke-miterlimit="10" stroke-linecap="round" stroke-linejoin="round"/>
<path d="M28 7.03497C33.8275 7.34997 36.75 9.50247 36.75 17.5V28C36.75 35 35 38.5 26.25 38.5H15.75C7 38.5 5.25 35 5.25 28V17.5C5.25 9.51997 8.1725 7.34997 14 7.03497" stroke="#C4D600" stroke-width="2" stroke-miterlimit="10" stroke-linecap="round" stroke-linejoin="round"/>
</svg>
