<svg width="92" height="92" viewBox="0 0 92 92" fill="none" xmlns="http://www.w3.org/2000/svg">
<path d="M34.5103 39.0357C43.4052 32.2688 45.0077 24.3888 44.4886 19.35C44.3859 18.3535 45.6662 17.4906 46.4233 18.1465C59.2003 29.2153 57.4587 42.4884 54.4807 48.8241C54.2386 49.3391 54.4381 49.9758 54.9972 50.0817C57.6971 50.593 60.602 48.1161 62.3421 46.0606C62.7915 45.5297 63.6501 45.5495 64.0305 46.1318C74.9509 62.8461 65.721 71.4332 56.9425 74.7245C55.9299 75.1042 54.0656 72.8268 54.0971 71.7459C54.1709 69.2139 53.2248 66.1944 50.7606 64.2143C45.5411 60.02 43.8824 55.3602 43.6124 52.2462C43.5344 51.3458 42.4037 50.6767 41.6988 51.2423C32.644 58.5079 32.9282 67.0049 36.5709 73.4139C37.0513 74.2592 36.249 75.3397 35.3457 74.9799C17.0249 67.6823 21.1055 49.2337 34.5103 39.0357Z" stroke="#C4D600" stroke-width="2"/>
</svg>
