<svg width="42" height="42" viewBox="0 0 42 42" fill="none" xmlns="http://www.w3.org/2000/svg">
<path d="M17.5875 4.4275L7.05253 11.305C3.67503 13.51 3.67503 18.445 7.05253 20.65L17.5875 27.5275C19.4775 28.77 22.5925 28.77 24.4825 27.5275L34.965 20.65C38.325 18.445 38.325 13.5275 34.965 11.3225L24.4825 4.445C22.5925 3.185 19.4775 3.185 17.5875 4.4275Z" stroke="#C4D600" stroke-width="2" stroke-linecap="round" stroke-linejoin="round"/>
<path d="M9.85246 22.89L9.83496 31.0975C9.83496 33.32 11.55 35.7 13.65 36.4L19.2325 38.255C20.195 38.57 21.7875 38.57 22.7675 38.255L28.35 36.4C30.45 35.7 32.165 33.32 32.165 31.0975V22.9775M37.45 26.25V15.75" stroke="#C4D600" stroke-width="2" stroke-linecap="round" stroke-linejoin="round"/>
</svg>
