<svg width="90" height="90" viewBox="0 0 90 90" fill="none" xmlns="http://www.w3.org/2000/svg">
<path d="M45 75C61.5686 75 75 61.5685 75 44.9999C75 28.4314 61.5686 15 45 15C28.4314 15 15 28.4314 15 44.9999C15 61.5685 28.4314 75 45 75Z" stroke="#C4D600" stroke-width="2" stroke-miterlimit="10"/>
<path d="M60.0293 39.9295C60.0293 39.3772 59.5815 38.9295 59.0293 38.9295H52.1093C51.557 38.9295 51.1093 38.4818 51.1093 37.9295V31.0157C51.1093 30.4635 50.6616 30.0157 50.1093 30.0157H40.3274C39.7751 30.0157 39.3274 30.4635 39.3274 31.0157V37.9295C39.3274 38.4818 38.8797 38.9295 38.3274 38.9295H31.4075C30.8552 38.9295 30.4075 39.3772 30.4075 39.9295V49.7176C30.4075 50.2699 30.8552 50.7176 31.4075 50.7176H38.3274C38.8797 50.7176 39.3274 51.1654 39.3274 51.7176V58.6375C39.3274 59.1898 39.7751 59.6375 40.3274 59.6375H50.1093C50.6616 59.6375 51.1093 59.1898 51.1093 58.6375V51.7176C51.1093 51.1654 51.557 50.7176 52.1093 50.7176H59.0293C59.5815 50.7176 60.0293 50.2699 60.0293 49.7176V39.9295Z" stroke="#C4D600" stroke-width="2" stroke-miterlimit="10"/>
</svg>
