<svg width="92" height="92" viewBox="0 0 92 92" fill="none" xmlns="http://www.w3.org/2000/svg">
<path d="M67.9582 44.1917V33.1867C67.9582 22.7758 65.5298 20.1667 55.7648 20.1667H36.2348C26.4698 20.1667 24.0415 22.7758 24.0415 33.1867V62.275C24.0415 69.1467 27.8132 70.7742 32.3857 65.8658L32.4115 65.84C34.5298 63.5925 37.759 63.7733 39.5932 66.2275L42.2023 69.715" stroke="#C4D600" stroke-width="2" stroke-linecap="round" stroke-linejoin="round"/>
<path d="M71.8332 71.8333L69.2498 69.25M35.6665 33.0833H56.3332M38.2498 43.4167H53.7498M62.0165 70.2833C64.209 70.2833 66.3116 69.4124 67.8619 67.8621C69.4122 66.3118 70.2832 64.2091 70.2832 62.0167C70.2832 59.8242 69.4122 57.7216 67.8619 56.1713C66.3116 54.621 64.209 53.75 62.0165 53.75C59.824 53.75 57.7214 54.621 56.1711 56.1713C54.6208 57.7216 53.7498 59.8242 53.7498 62.0167C53.7498 64.2091 54.6208 66.3118 56.1711 67.8621C57.7214 69.4124 59.824 70.2833 62.0165 70.2833Z" stroke="#C4D600" stroke-width="2" stroke-linecap="round" stroke-linejoin="round"/>
</svg>
