<svg width="90" height="90" viewBox="0 0 90 90" fill="none" xmlns="http://www.w3.org/2000/svg">
<path d="M34.4644 57.5628H53.6964" stroke="#C4D600" stroke-width="2" stroke-linecap="round" stroke-linejoin="round"/>
<path d="M44.0678 23.9062C44.8692 23.9062 45.6705 24.195 46.3019 24.7483C48.4631 26.6488 52.0083 30.3295 54.4366 35.4537C54.9466 36.5363 55.4079 37.667 55.7965 38.8698C56.1121 39.8802 56.3793 40.8906 56.5978 41.9251C57.7391 47.4823 56.4764 53.232 54.7038 58.5246C54.0239 60.5935 53.4896 62.9752 52.2512 64.8035C52.1783 64.8998 52.1297 64.9959 52.0812 65.0681C51.4255 65.9342 50.4057 66.4394 49.313 66.4394C49.313 66.4394 46.6904 66.4394 44.0678 66.4394C41.4453 66.4394 38.8227 66.4394 38.8227 66.4394C37.73 66.4394 36.7101 65.9342 36.0545 65.0681C36.0059 64.9719 35.9574 64.8998 35.8845 64.8035C34.6461 62.9752 34.1118 60.6176 33.4319 58.5246C31.6835 53.232 30.3965 47.4823 31.5378 41.9251C31.7564 40.8906 32.0235 39.8802 32.3392 38.8698C32.7278 37.667 33.1891 36.5363 33.6991 35.4537C36.1274 30.3295 39.6726 26.6728 41.8338 24.7483C42.4651 24.195 43.2665 23.9062 44.0678 23.9062Z" stroke="#C4D600" stroke-width="2" stroke-linecap="round" stroke-linejoin="round"/>
<path d="M52.2617 64.8026L56.6084 67.9782C57.264 68.4594 58.0654 68.5556 58.8181 68.291C59.1338 68.1466 59.4009 67.9782 59.6194 67.7617C59.9351 67.449 60.1537 67.064 60.2508 66.6069L61.8049 58.9808C62.0234 57.9463 61.7321 56.9359 61.0764 56.142L56.9241 51.3547C56.9484 51.3066 56.9483 51.2584 56.9483 51.2103" stroke="#C4D600" stroke-width="2" stroke-linecap="round" stroke-linejoin="round"/>
<path d="M31.2026 51.3326L27.0502 56.12C26.3946 56.9139 26.1032 57.9483 26.3218 58.9587L27.8758 66.5848C28.0215 67.3546 28.5801 67.9802 29.3086 68.2689C30.0614 68.5335 30.8626 68.4372 31.5183 67.9561L35.8649 64.7805" stroke="#C4D600" stroke-width="2" stroke-linecap="round" stroke-linejoin="round"/>
<path d="M44.0678 45.6537C46.7232 45.6537 48.8759 43.521 48.8759 40.8903C48.8759 38.2596 46.7232 36.127 44.0678 36.127C41.4124 36.127 39.2598 38.2596 39.2598 40.8903C39.2598 43.521 41.4124 45.6537 44.0678 45.6537Z" stroke="#C4D600" stroke-width="2" stroke-linecap="round" stroke-linejoin="round"/>
</svg>
