<svg width="120" height="120" viewBox="0 0 120 120" fill="none" xmlns="http://www.w3.org/2000/svg">
<path d="M60.02 0C26.88 0 0 26.8667 0 60.0133C0 93.16 26.8733 120 60.02 120C93.1667 120 120 93.16 120 60.0133C120 26.8667 93.1533 0 60.02 0ZM60 39.1267H54.16C47.8867 39.1267 43.86 39.1467 41.68 39.8667C39.5667 40.52 38 41.32 37.1467 42.5667C36.36 43.5733 36.0933 44.9533 36.0933 46.1467C36.0933 47.34 36.2333 48.5867 37.4667 50.1733C38.9933 51.7 41.5133 53.6667 46.4533 56.7067C56.3 62.8533 59.2133 67.7267 59.2133 74.1467C59.2133 84.5933 49.3667 94.5667 32.8533 94.5667C27.8933 94.5667 20.9667 93.84 18.0467 92.9067L16.5133 92.4533C17.1133 90.4667 19.0733 84.9867 19.9333 82.6733L21.48 83.0667C24.7267 83.86 29.8 84.3267 33.1733 84.3267C42.8333 84.3267 46.5867 79.9667 46.5867 76.1333C46.5867 72.6333 44.6733 70.7133 35.0933 64.9067C26.1133 59.3533 23.0067 54.5267 23.0067 47.8667C23.0067 39.8667 28.16 33.7733 35.6133 30.8667C40.0533 29.22 46.18 28.6933 55.6333 28.6933H64.16L59.9867 39.1267H60ZM100.907 30.7333C98.9867 35.4933 80.8733 80.8733 80.8733 80.8733H68.7667C68.7667 80.8733 83.0733 44.42 85.4467 38.9867C83.8 38.9867 82.54 39.1267 75.9933 39.1267H66.26L70.4333 28.6933H99.7933C101.173 28.6933 101.44 29.6667 100.907 30.7333Z" fill="white"/>
</svg>
